<svg xmlns="http://www.w3.org/2000/svg" xmlns:xlink="http://www.w3.org/1999/xlink" version="1.1" width="256" height="256" viewBox="0 0 256 256" xml:space="preserve">

<defs>
</defs>
<g style="stroke: none; stroke-width: 0; stroke-dasharray: none; stroke-linecap: butt; stroke-linejoin: miter; stroke-miterlimit: 10; fill: none; fill-rule: nonzero; opacity: 1;" transform="translate(254.59340659340654 254.59340659340654) rotate(-180) scale(2.81 2.81)" >
	<path d="M 64.903 19.903 H 25.097 C 11.236 19.903 0 31.139 0 45 v 0 c 0 13.861 11.236 25.097 25.097 25.097 h 39.806 C 78.764 70.097 90 58.861 90 45 v 0 C 90 31.139 78.764 19.903 64.903 19.903 z M 82.801 45 c 0 9.885 -8.013 17.898 -17.898 17.898 h 0 c -9.885 0 -17.898 -8.013 -17.898 -17.898 v 0 c 0 -9.885 8.013 -17.898 17.898 -17.898 h 0 C 74.788 27.102 82.801 35.115 82.801 45 L 82.801 45 z" style="stroke: none; stroke-width: 1; stroke-dasharray: none; stroke-linecap: butt; stroke-linejoin: miter; stroke-miterlimit: 10; fill: rgb(82,81,81); fill-rule: nonzero; opacity: 1;" transform=" matrix(1 0 0 1 0 0) " stroke-linecap="round" />
</g>
</svg>